# xmcd CD database file
#
# Track frame offsets:
#	150
#	20510
#	38687
#	59037
#
# Disc length: 1026 seconds
#
# Revision: 1
# Processed by: cddbd v1.5.1PL0 Copyright (c) Steve Scherf et al.
# Submitted via: CDex 1.51
#
DISCID=2f040004
DTITLE=中原麻衣(鴇羽舞衣)　千葉紗子(玖我なつき)　清水愛(美袋命) - Parade
DYEAR=2004
DGENRE=Anime
TTITLE0=Parade
TTITLE1=私立風華学園校歌〜水晶の守り〜
TTITLE2=Parade<off vocal>
TTITLE3=私立風華学園校歌〜水晶の守り〜<off vocal>
EXTD=YEAR: 2004
EXTT0=
EXTT1=
EXTT2=
EXTT3=
PLAYORDER=
